<svg width="28" height="28" viewBox="0 0 28 28" fill="none" xmlns="http://www.w3.org/2000/svg">
<g id="Edit / Copy">
<path id="Vector" d="M10.5 10.5V7.23356C10.5 5.92677 10.5 5.27289 10.7543 4.77376C10.978 4.33472 11.3347 3.97802 11.7738 3.75432C12.2729 3.5 12.9268 3.5 14.2336 3.5H20.7669C22.0737 3.5 22.7267 3.5 23.2259 3.75432C23.6649 3.97802 24.0222 4.33472 24.2459 4.77376C24.5003 5.27289 24.5003 5.92629 24.5003 7.23307V13.7664C24.5003 15.0732 24.5003 15.7266 24.2459 16.2257C24.0222 16.6648 23.6646 17.0222 23.2255 17.2459C22.7269 17.5 22.0745 17.5 20.7703 17.5H17.5M10.5 10.5H7.23356C5.92677 10.5 5.27289 10.5 4.77376 10.7543C4.33472 10.978 3.97802 11.3347 3.75432 11.7738C3.5 12.2729 3.5 12.9268 3.5 14.2336V20.7669C3.5 22.0737 3.5 22.7267 3.75432 23.2259C3.97802 23.6649 4.33472 24.0222 4.77376 24.2459C5.2724 24.5 5.92549 24.5 7.22973 24.5H13.7708C15.075 24.5 15.7272 24.5 16.2259 24.2459C16.6649 24.0222 17.0222 23.6646 17.2459 23.2255C17.5 22.7269 17.5 22.0745 17.5 20.7703V17.5M10.5 10.5H13.7669C15.0737 10.5 15.7267 10.5 16.2259 10.7543C16.6649 10.978 17.0222 11.3347 17.2459 11.7738C17.5 12.2724 17.5 12.9255 17.5 14.2298L17.5 17.5" stroke="#A8A8A8" stroke-width="2" stroke-linecap="round" stroke-linejoin="round"/>
</g>
</svg>
