<svg width="28" height="29" viewBox="0 0 28 29" fill="none" xmlns="http://www.w3.org/2000/svg">
<g id="donate">
<path id="Ellipse 28 (Stroke)" fill-rule="evenodd" clip-rule="evenodd" d="M14 3.25C7.7868 3.25 2.75 8.2868 2.75 14.5C2.75 20.7132 7.7868 25.75 14 25.75C20.2132 25.75 25.25 20.7132 25.25 14.5C25.25 8.2868 20.2132 3.25 14 3.25ZM0.25 14.5C0.25 6.90608 6.40608 0.75 14 0.75C21.5939 0.75 27.75 6.90608 27.75 14.5C27.75 22.0939 21.5939 28.25 14 28.25C6.40608 28.25 0.25 22.0939 0.25 14.5Z" fill="white"/>
<path id="Vector 78 (Stroke)" fill-rule="evenodd" clip-rule="evenodd" d="M9.97266 11.4443C9.97266 9.37327 11.6516 7.69434 13.7227 7.69434H14.2782C16.3493 7.69434 18.0282 9.37327 18.0282 11.4443V11.7221H15.5282V11.4443C15.5282 10.754 14.9686 10.1943 14.2782 10.1943H13.7227C13.0323 10.1943 12.4727 10.754 12.4727 11.4443V11.5659C12.4727 12.0394 12.7402 12.4722 13.1636 12.684L15.9553 14.0798C17.2257 14.715 18.0282 16.0135 18.0282 17.4339V17.5554C18.0282 19.6265 16.3493 21.3054 14.2782 21.3054H13.7227C11.6516 21.3054 9.97266 19.6265 9.97266 17.5554V17.2777H12.4727V17.5554C12.4727 18.2458 13.0323 18.8054 13.7227 18.8054H14.2782C14.9686 18.8054 15.5282 18.2458 15.5282 17.5554V17.4339C15.5282 16.9604 15.2607 16.5276 14.8372 16.3158L12.0456 14.92C10.7752 14.2848 9.97266 12.9863 9.97266 11.5659V11.4443Z" fill="white"/>
<path id="Vector 79 (Stroke)" fill-rule="evenodd" clip-rule="evenodd" d="M14.25 6.1665C14.8023 6.1665 15.25 6.61422 15.25 7.1665V7.94428C15.25 8.49657 14.8023 8.94428 14.25 8.94428H13.75C13.1977 8.94428 12.75 8.49657 12.75 7.94428V7.1665C12.75 6.61422 13.1977 6.1665 13.75 6.1665H14.25Z" fill="white"/>
<path id="Vector 79 (Stroke)_2" fill-rule="evenodd" clip-rule="evenodd" d="M14.25 20.0557C14.8023 20.0557 15.25 20.5034 15.25 21.0557V21.8334C15.25 22.3857 14.8023 22.8334 14.25 22.8334H13.75C13.1977 22.8334 12.75 22.3857 12.75 21.8334V21.0557C12.75 20.5034 13.1977 20.0557 13.75 20.0557H14.25Z" fill="white"/>
</g>
</svg>
