<svg width="30" height="31" viewBox="0 0 30 31" fill="none" xmlns="http://www.w3.org/2000/svg">
<g id="Interface / Drag_Horizontal">
<g id="Vector">
<path d="M22.5 18C21.8096 18 21.25 18.5596 21.25 19.25C21.25 19.9404 21.8096 20.5 22.5 20.5C23.1904 20.5 23.75 19.9404 23.75 19.25C23.75 18.5596 23.1904 18 22.5 18Z" stroke="white" stroke-width="2" stroke-linecap="round" stroke-linejoin="round"/>
<path d="M15 18C14.3096 18 13.75 18.5596 13.75 19.25C13.75 19.9404 14.3096 20.5 15 20.5C15.6904 20.5 16.25 19.9404 16.25 19.25C16.25 18.5596 15.6904 18 15 18Z" stroke="white" stroke-width="2" stroke-linecap="round" stroke-linejoin="round"/>
<path d="M7.5 18C6.80964 18 6.25 18.5596 6.25 19.25C6.25 19.9404 6.80964 20.5 7.5 20.5C8.19036 20.5 8.75 19.9404 8.75 19.25C8.75 18.5596 8.19036 18 7.5 18Z" stroke="white" stroke-width="2" stroke-linecap="round" stroke-linejoin="round"/>
<path d="M22.5 10.5C21.8096 10.5 21.25 11.0596 21.25 11.75C21.25 12.4404 21.8096 13 22.5 13C23.1904 13 23.75 12.4404 23.75 11.75C23.75 11.0596 23.1904 10.5 22.5 10.5Z" stroke="white" stroke-width="2" stroke-linecap="round" stroke-linejoin="round"/>
<path d="M15 10.5C14.3096 10.5 13.75 11.0596 13.75 11.75C13.75 12.4404 14.3096 13 15 13C15.6904 13 16.25 12.4404 16.25 11.75C16.25 11.0596 15.6904 10.5 15 10.5Z" stroke="white" stroke-width="2" stroke-linecap="round" stroke-linejoin="round"/>
<path d="M7.5 10.5C6.80964 10.5 6.25 11.0596 6.25 11.75C6.25 12.4404 6.80964 13 7.5 13C8.19036 13 8.75 12.4404 8.75 11.75C8.75 11.0596 8.19036 10.5 7.5 10.5Z" stroke="white" stroke-width="2" stroke-linecap="round" stroke-linejoin="round"/>
</g>
</g>
</svg>
