<svg width="28" height="28" viewBox="0 0 28 28" fill="none" xmlns="http://www.w3.org/2000/svg">
<g id="Interface / External_Link">
<path id="Vector" d="M11.6675 5.83317H9.56755C8.26076 5.83317 7.60687 5.83317 7.10775 6.08749C6.6687 6.31119 6.31201 6.66789 6.0883 7.10693C5.83398 7.60606 5.83398 8.25994 5.83398 9.56673V18.4334C5.83398 19.7402 5.83398 20.3932 6.0883 20.8924C6.31201 21.3314 6.6687 21.6887 7.10775 21.9124C7.60639 22.1665 8.25948 22.1665 9.56371 22.1665H18.4376C19.7418 22.1665 20.394 22.1665 20.8926 21.9124C21.3317 21.6887 21.6895 21.3311 21.9132 20.892C22.1673 20.3934 22.1673 19.741 22.1673 18.4368V16.3332M23.334 10.4998V4.6665M23.334 4.6665H17.5007M23.334 4.6665L15.1673 12.8332" stroke="#A8A8A8" stroke-width="2" stroke-linecap="round" stroke-linejoin="round"/>
</g>
</svg>
