<svg width="44" height="48" viewBox="0 0 44 48" fill="none" xmlns="http://www.w3.org/2000/svg">
<g id="Logo">
<path id="Vector" d="M36.7041 15.9344L29.2136 11.7395L21.7231 7.54456L14.2326 11.7395L6.74216 15.9344V20.4339L0 24.2074V12.1585L10.8603 6.0756L21.7207 0L32.581 6.0756L43.4413 12.1585V24.2074L36.6992 20.4339V15.9344H36.7041Z" fill="#6957DA"/>
<path id="Vector_2" fill-rule="evenodd" clip-rule="evenodd" d="M21.727 7.54456L14.2365 11.7395L6.74607 15.9344V20.4339L0.00390625 24.2074V12.1585L10.8642 6.0756L21.7246 0V7.54213L21.727 7.54456Z" fill="#7A67F2"/>
<path id="Vector_3" fill-rule="evenodd" clip-rule="evenodd" d="M43.4487 28.6054V36.4764L21.8723 47.9162L21.7207 47.9966V41.2706L21.843 41.1853L21.8723 41.1658L24.1344 39.5873V29.8405C25.2789 29.0902 26.0272 27.821 26.0272 26.3837C26.0272 24.1254 24.176 22.291 21.8748 22.2155C21.8283 22.2155 21.7769 22.2131 21.7305 22.2131V16.4883C21.7769 16.4883 21.8283 16.4907 21.8748 16.4907C27.1276 16.6344 31.4806 20.8099 31.4806 25.933C31.4806 26.8514 31.3436 27.7357 31.0942 28.5761V35.843L36.709 32.7004V24.8294L43.4512 28.6029L43.4487 28.6054Z" fill="#7A67F2"/>
<path id="Vector_4" fill-rule="evenodd" clip-rule="evenodd" d="M21.8781 16.4868V22.2141C21.8317 22.2141 21.7803 22.2116 21.7338 22.2116H21.729C19.3471 22.2116 17.4249 24.085 17.4249 26.3846C17.4249 27.8219 18.1781 29.0911 19.3226 29.8414V39.5882L21.729 41.2764L21.8512 41.1887L21.8806 41.1692V47.9196L21.729 48L0.015625 36.4822V28.6112L6.75779 24.8377V32.7087L12.3653 35.8513V28.5747C12.1134 27.7318 11.9862 26.8524 11.9862 25.9388C11.9862 20.7207 16.3465 16.4844 21.7338 16.4844C21.7852 16.4844 21.8317 16.4844 21.8781 16.4941V16.4868Z" fill="#6957DA"/>
</g>
</svg>
