<svg width="31" height="39" viewBox="0 0 31 39" fill="none" xmlns="http://www.w3.org/2000/svg">
<path id="notifications" d="M1.91666 32.9168C0.858118 32.9168 0 32.0587 0 31.0002C0 29.9416 0.858121 29.0835 1.91667 29.0835H3.83333V15.6668C3.83333 13.0154 4.63194 10.6595 6.22917 8.59912C7.82639 6.5387 9.90278 5.18905 12.4583 4.55016V3.2085C12.4583 2.40988 12.7378 1.73107 13.2969 1.17204C13.8559 0.61301 14.5347 0.333496 15.3333 0.333496C16.1319 0.333496 16.8108 0.61301 17.3698 1.17204C17.9288 1.73107 18.2083 2.40988 18.2083 3.2085V4.55016C20.7639 5.18905 22.8403 6.5387 24.4375 8.59912C26.0347 10.6595 26.8333 13.0154 26.8333 15.6668V29.0835H28.75C29.8085 29.0835 30.6667 29.9416 30.6667 31.0002C30.6667 32.0587 29.8085 32.9168 28.75 32.9168H1.91666ZM15.3333 38.6668C14.2792 38.6668 13.3767 38.2915 12.626 37.5408C11.8753 36.7901 11.5 35.8877 11.5 34.8335H19.1667C19.1667 35.8877 18.7913 36.7901 18.0406 37.5408C17.2899 38.2915 16.3875 38.6668 15.3333 38.6668ZM7.66667 29.0835H23V15.6668C23 13.5585 22.2493 11.7536 20.7479 10.2522C19.2465 8.75086 17.4417 8.00016 15.3333 8.00016C13.225 8.00016 11.4201 8.75086 9.91875 10.2522C8.41736 11.7536 7.66667 13.5585 7.66667 15.6668V29.0835Z" fill="white"/>
</svg>
