<svg width="30" height="31" viewBox="0 0 30 31" fill="none" xmlns="http://www.w3.org/2000/svg">
<g id="Interface / Tag">
<g id="Vector">
<path d="M5.93464 10.0564L5.52062 14.6107C5.45929 15.2852 5.42837 15.6253 5.48451 15.9481C5.53466 16.2366 5.63483 16.5141 5.78095 16.7678C5.94513 17.0529 6.18779 17.2955 6.67034 17.7781L13.1397 24.2474C14.1235 25.2312 14.6157 25.7234 15.1847 25.9083C15.6868 26.0714 16.2286 26.0718 16.7307 25.9087C17.3015 25.7232 17.7975 25.2278 18.7875 24.2377L23.7373 19.288C24.7273 18.2979 25.2215 17.8031 25.407 17.2323C25.5702 16.7302 25.5692 16.1891 25.406 15.6869C25.2206 15.1161 24.7271 14.6214 23.7371 13.6314L17.2836 7.17798C16.7967 6.69103 16.5531 6.44752 16.2668 6.2826C16.0131 6.13647 15.7355 6.03588 15.4471 5.98572C15.1215 5.92912 14.7785 5.96024 14.0926 6.02259L9.55537 6.43507C8.37442 6.54243 7.78357 6.59634 7.32148 6.8533C6.91407 7.07986 6.57821 7.41572 6.35166 7.82312C6.09598 8.28291 6.04265 8.86956 5.93637 10.0388L5.93464 10.0564Z" stroke="white" stroke-width="2" stroke-linecap="round" stroke-linejoin="round"/>
<path d="M12.1405 12.6413C12.6286 12.1532 12.6286 11.3617 12.1405 10.8736C11.6523 10.3854 10.8603 10.3854 10.3722 10.8736C9.884 11.3617 9.88353 12.153 10.3717 12.6411C10.8598 13.1293 11.6523 13.1295 12.1405 12.6413Z" stroke="white" stroke-width="2" stroke-linecap="round" stroke-linejoin="round"/>
</g>
</g>
</svg>
