<svg width="30" height="31" viewBox="0 0 30 31" fill="none" xmlns="http://www.w3.org/2000/svg">
<g id="Interface / Ticket_Voucher">
<path id="Vector" d="M17.5 8H7.5C6.33515 8 5.7524 8 5.29297 8.1903C4.6804 8.44404 4.19404 8.93101 3.9403 9.54358C3.75 10.003 3.75 10.5854 3.75 11.7503C5.82107 11.7503 7.5 13.4286 7.5 15.4997C7.5 17.5708 5.82107 19.25 3.75 19.25C3.75 20.4149 3.75 20.9973 3.9403 21.4567C4.19404 22.0693 4.6804 22.5558 5.29297 22.8096C5.7524 22.9999 6.33515 23 7.5 23H17.5M17.5 8H22.5C23.6649 8 24.2473 8 24.7067 8.1903C25.3193 8.44404 25.8058 8.93101 26.0596 9.54358C26.2499 10.003 26.2499 10.5854 26.2499 11.7503C24.1788 11.7503 22.5 13.4289 22.5 15.5C22.5 17.5711 24.1788 19.25 26.2499 19.25C26.2499 20.4149 26.2499 20.9973 26.0596 21.4567C25.8058 22.0693 25.3193 22.5558 24.7067 22.8096C24.2473 22.9999 23.6649 23 22.5 23H17.5M17.5 8V23" stroke="white" stroke-width="2" stroke-linecap="round" stroke-linejoin="round"/>
</g>
</svg>
